<svg xmlns="http://www.w3.org/2000/svg" viewBox="0 0 3840 2160" preserveAspectRatio="xMidYMid slice">
  <defs>
    <radialGradient id="sky" cx="50%" cy="100%" r="80%">
      <stop offset="0%" stop-color="#0d1635"/>
      <stop offset="40%" stop-color="#080e22"/>
      <stop offset="100%" stop-color="#030609"/>
    </radialGradient>
    <radialGradient id="moon-glow" cx="50%" cy="50%" r="50%">
      <stop offset="0%" stop-color="#fffbe8" stop-opacity=".15"/>
      <stop offset="100%" stop-color="#fffbe8" stop-opacity="0"/>
    </radialGradient>
    <radialGradient id="city-glow" cx="50%" cy="100%" r="60%">
      <stop offset="0%" stop-color="#1a3060" stop-opacity=".5"/>
      <stop offset="100%" stop-color="#1a3060" stop-opacity="0"/>
    </radialGradient>
  </defs>

  <rect width="3840" height="2160" fill="url(#sky)"/>
  <rect width="3840" height="2160" fill="url(#city-glow)"/>

  <!-- Stars layer 1: bright large -->
  <circle cx="120" cy="80"   r="2.5" fill="#fff" opacity=".95"/>
  <circle cx="290" cy="55"   r="2"   fill="#fff" opacity=".85"/>
  <circle cx="480" cy="110"  r="2.8" fill="#fff" opacity=".9"/>
  <circle cx="650" cy="40"   r="2"   fill="#fff" opacity=".8"/>
  <circle cx="820" cy="90"   r="2.5" fill="#fff" opacity=".88"/>
  <circle cx="1000" cy="55"  r="2.2" fill="#fff" opacity=".82"/>
  <circle cx="1180" cy="120" r="2.8" fill="#fff" opacity=".95"/>
  <circle cx="1350" cy="45"  r="2"   fill="#fff" opacity=".78"/>
  <circle cx="1520" cy="100" r="2.5" fill="#fff" opacity=".9"/>
  <circle cx="1700" cy="60"  r="2.2" fill="#fff" opacity=".85"/>
  <circle cx="1870" cy="130" r="3"   fill="#fff" opacity=".92"/>
  <circle cx="2050" cy="50"  r="2"   fill="#fff" opacity=".78"/>
  <circle cx="2220" cy="95"  r="2.5" fill="#fff" opacity=".88"/>
  <circle cx="2400" cy="35"  r="2.2" fill="#fff" opacity=".82"/>
  <circle cx="2580" cy="115" r="2.8" fill="#fff" opacity=".9"/>
  <circle cx="2750" cy="55"  r="2"   fill="#fff" opacity=".78"/>
  <circle cx="2920" cy="90"  r="2.5" fill="#fff" opacity=".88"/>
  <circle cx="3100" cy="40"  r="2.2" fill="#fff" opacity=".82"/>
  <circle cx="3280" cy="110" r="2.8" fill="#fff" opacity=".92"/>
  <circle cx="3460" cy="65"  r="2"   fill="#fff" opacity=".8"/>
  <circle cx="3640" cy="95"  r="2.5" fill="#fff" opacity=".85"/>
  <circle cx="3820" cy="50"  r="2"   fill="#fff" opacity=".78"/>
  <!-- Stars layer 2: medium -->
  <circle cx="200"  cy="160" r="1.8" fill="#fff" opacity=".65"/>
  <circle cx="390"  cy="200" r="1.5" fill="#fff" opacity=".55"/>
  <circle cx="560"  cy="155" r="1.8" fill="#fff" opacity=".62"/>
  <circle cx="740"  cy="210" r="1.5" fill="#fff" opacity=".5"/>
  <circle cx="910"  cy="170" r="1.8" fill="#fff" opacity=".6"/>
  <circle cx="1090" cy="195" r="1.5" fill="#fff" opacity=".52"/>
  <circle cx="1260" cy="160" r="1.8" fill="#fff" opacity=".65"/>
  <circle cx="1440" cy="205" r="1.5" fill="#fff" opacity=".55"/>
  <circle cx="1610" cy="175" r="1.8" fill="#fff" opacity=".62"/>
  <circle cx="1790" cy="195" r="1.5" fill="#fff" opacity=".5"/>
  <circle cx="1960" cy="162" r="1.8" fill="#fff" opacity=".6"/>
  <circle cx="2140" cy="200" r="1.5" fill="#fff" opacity=".52"/>
  <circle cx="2310" cy="168" r="1.8" fill="#fff" opacity=".65"/>
  <circle cx="2490" cy="205" r="1.5" fill="#fff" opacity=".55"/>
  <circle cx="2660" cy="172" r="1.8" fill="#fff" opacity=".62"/>
  <circle cx="2840" cy="198" r="1.5" fill="#fff" opacity=".5"/>
  <circle cx="3010" cy="165" r="1.8" fill="#fff" opacity=".6"/>
  <circle cx="3190" cy="202" r="1.5" fill="#fff" opacity=".52"/>
  <circle cx="3360" cy="170" r="1.8" fill="#fff" opacity=".65"/>
  <circle cx="3540" cy="198" r="1.5" fill="#fff" opacity=".55"/>
  <circle cx="3720" cy="165" r="1.8" fill="#fff" opacity=".6"/>
  <!-- Stars layer 3: small faint -->
  <circle cx="160"  cy="260" r="1.2" fill="#cce" opacity=".45"/>
  <circle cx="340"  cy="290" r="1"   fill="#ddf" opacity=".38"/>
  <circle cx="510"  cy="255" r="1.2" fill="#cce" opacity=".42"/>
  <circle cx="690"  cy="300" r="1"   fill="#fff" opacity=".35"/>
  <circle cx="860"  cy="268" r="1.2" fill="#ddf" opacity=".4"/>
  <circle cx="1040" cy="295" r="1"   fill="#cce" opacity=".35"/>
  <circle cx="1210" cy="262" r="1.2" fill="#fff" opacity=".45"/>
  <circle cx="1390" cy="298" r="1"   fill="#ddf" opacity=".38"/>
  <circle cx="1560" cy="272" r="1.2" fill="#cce" opacity=".42"/>
  <circle cx="1740" cy="292" r="1"   fill="#fff" opacity=".35"/>
  <circle cx="1910" cy="265" r="1.2" fill="#ddf" opacity=".4"/>
  <circle cx="2090" cy="298" r="1"   fill="#cce" opacity=".35"/>
  <circle cx="2260" cy="268" r="1.2" fill="#fff" opacity=".45"/>
  <circle cx="2440" cy="295" r="1"   fill="#ddf" opacity=".38"/>
  <circle cx="2610" cy="272" r="1.2" fill="#cce" opacity=".42"/>
  <circle cx="2790" cy="292" r="1"   fill="#fff" opacity=".35"/>
  <circle cx="2960" cy="265" r="1.2" fill="#ddf" opacity=".4"/>
  <circle cx="3140" cy="295" r="1"   fill="#cce" opacity=".35"/>
  <circle cx="3310" cy="268" r="1.2" fill="#fff" opacity=".45"/>
  <circle cx="3490" cy="292" r="1"   fill="#ddf" opacity=".38"/>
  <circle cx="3660" cy="272" r="1.2" fill="#cce" opacity=".42"/>
  <circle cx="3840" cy="295" r="1"   fill="#fff" opacity=".35"/>
  <!-- Extra scattered faint stars -->
  <circle cx="75"   cy="340" r="1"   fill="#fff" opacity=".3"/>
  <circle cx="255"  cy="320" r="1.2" fill="#cce" opacity=".35"/>
  <circle cx="435"  cy="345" r="1"   fill="#fff" opacity=".28"/>
  <circle cx="615"  cy="318" r="1.2" fill="#ddf" opacity=".32"/>
  <circle cx="795"  cy="342" r="1"   fill="#fff" opacity=".3"/>
  <circle cx="975"  cy="322" r="1.2" fill="#cce" opacity=".35"/>
  <circle cx="1155" cy="348" r="1"   fill="#fff" opacity=".28"/>
  <circle cx="1335" cy="325" r="1.2" fill="#ddf" opacity=".32"/>
  <circle cx="1515" cy="342" r="1"   fill="#fff" opacity=".3"/>
  <circle cx="1695" cy="318" r="1.2" fill="#cce" opacity=".35"/>
  <circle cx="1875" cy="345" r="1"   fill="#fff" opacity=".28"/>
  <circle cx="2055" cy="322" r="1.2" fill="#ddf" opacity=".32"/>
  <circle cx="2235" cy="340" r="1"   fill="#fff" opacity=".3"/>
  <circle cx="2415" cy="318" r="1.2" fill="#cce" opacity=".35"/>
  <circle cx="2595" cy="342" r="1"   fill="#fff" opacity=".28"/>
  <circle cx="2775" cy="320" r="1.2" fill="#ddf" opacity=".32"/>
  <circle cx="2955" cy="345" r="1"   fill="#fff" opacity=".3"/>
  <circle cx="3135" cy="322" r="1.2" fill="#cce" opacity=".35"/>
  <circle cx="3315" cy="340" r="1"   fill="#fff" opacity=".28"/>
  <circle cx="3495" cy="318" r="1.2" fill="#ddf" opacity=".32"/>
  <circle cx="3675" cy="342" r="1"   fill="#fff" opacity=".3"/>

  <!-- Moon (crescent) -->
  <circle cx="3200" cy="280" r="130" fill="#fffbe8" opacity=".95"/>
  <circle cx="3255" cy="240" r="108" fill="#080e22"/>
  <circle cx="3200" cy="280" r="160" fill="url(#moon-glow)"/>
  <circle cx="3200" cy="280" r="200" fill="none" stroke="#fffbe8" stroke-width="30" opacity=".04"/>

  <!-- Milky way band -->
  <ellipse cx="1920" cy="700" rx="2200" ry="320" fill="#101a3a" opacity=".4" transform="rotate(-12 1920 700)"/>
  <ellipse cx="1920" cy="680" rx="1600" ry="180" fill="#0e1835" opacity=".25" transform="rotate(-12 1920 680)"/>

  <!-- Horizon glow (city light pollution) -->
  <rect x="0" y="1500" width="3840" height="660" fill="#0a1535" opacity=".8"/>
  <ellipse cx="1920" cy="2160" rx="2400" ry="600" fill="#142060" opacity=".2"/>

  <!-- CITY SKYLINE — far distance layer (tallest, most distant) -->
  <!-- Far buildings left cluster -->
  <rect x="0"    y="1520" width="120" height="640" fill="#0c1428"/>
  <rect x="125"  y="1460" width="90"  height="700" fill="#0c1428"/>
  <rect x="220"  y="1490" width="140" height="670" fill="#0c1428"/>
  <rect x="365"  y="1420" width="100" height="740" fill="#0c1428"/>
  <rect x="470"  y="1445" width="150" height="715" fill="#0c1428"/>
  <rect x="625"  y="1400" width="80"  height="760" fill="#0c1428"/>
  <rect x="710"  y="1440" width="120" height="720" fill="#0c1428"/>
  <rect x="835"  y="1380" width="110" height="780" fill="#0c1428"/>
  <rect x="950"  y="1410" width="160" height="750" fill="#0c1428"/>
  <rect x="1115" y="1360" width="90"  height="800" fill="#0c1428"/>
  <!-- Central tower cluster -->
  <rect x="1480" y="1220" width="110" height="940" fill="#0d1530"/>
  <rect x="1595" y="1280" width="140" height="880" fill="#0d1530"/>
  <rect x="1740" y="1180" width="120" height="980" fill="#0d1530"/>
  <rect x="1865" y="1100" width="90"  height="1060" fill="#0d1530"/>
  <rect x="1960" y="1060" width="130" height="1100" fill="#0d1530"/>
  <rect x="2095" y="1140" width="100" height="1020" fill="#0d1530"/>
  <rect x="2200" y="1200" width="150" height="960" fill="#0d1530"/>
  <rect x="2355" y="1260" width="110" height="900" fill="#0d1530"/>
  <!-- Far right cluster -->
  <rect x="2720" y="1380" width="140" height="780" fill="#0c1428"/>
  <rect x="2865" y="1360" width="100" height="800" fill="#0c1428"/>
  <rect x="2970" y="1400" width="120" height="760" fill="#0c1428"/>
  <rect x="3095" y="1430" width="90"  height="730" fill="#0c1428"/>
  <rect x="3190" y="1405" width="150" height="755" fill="#0c1428"/>
  <rect x="3345" y="1440" width="110" height="720" fill="#0c1428"/>
  <rect x="3460" y="1415" width="130" height="745" fill="#0c1428"/>
  <rect x="3595" y="1450" width="100" height="710" fill="#0c1428"/>
  <rect x="3700" y="1425" width="140" height="735" fill="#0c1428"/>

  <!-- Spires on tallest towers -->
  <rect x="1876" y="1000" width="16" height="104" fill="#0d1530"/>
  <rect x="1882" y="940"  width="4"  height="64"  fill="#0d1530"/>
  <rect x="1970" y="960"  width="20" height="104" fill="#0d1530"/>
  <rect x="1978" y="896"  width="6"  height="68"  fill="#0d1530"/>

  <!-- MID-DISTANCE BUILDINGS -->
  <rect x="0"    y="1680" width="200" height="480" fill="#0e1832"/>
  <rect x="205"  y="1640" width="160" height="520" fill="#0e1832"/>
  <rect x="370"  y="1600" width="220" height="560" fill="#0e1832"/>
  <rect x="595"  y="1660" width="180" height="500" fill="#0e1832"/>
  <rect x="780"  y="1620" width="200" height="540" fill="#0e1832"/>
  <rect x="985"  y="1580" width="240" height="580" fill="#0e1832"/>
  <rect x="3240" y="1600" width="190" height="560" fill="#0e1832"/>
  <rect x="3435" y="1640" width="210" height="520" fill="#0e1832"/>
  <rect x="3650" y="1620" width="190" height="540" fill="#0e1832"/>

  <!-- WINDOWS — dense, varied warm/cool -->
  <!-- Central tower windows (systematic grid) -->
  <rect x="1492" y="1240" width="14" height="10" fill="#a8d4ff" opacity=".55"/>
  <rect x="1510" y="1240" width="14" height="10" fill="#fff"    opacity=".65"/>
  <rect x="1528" y="1240" width="14" height="10" fill="#a8d4ff" opacity=".5"/>
  <rect x="1546" y="1240" width="14" height="10" fill="#f5d87a" opacity=".6"/>
  <rect x="1492" y="1256" width="14" height="10" fill="#fff"    opacity=".6"/>
  <rect x="1510" y="1256" width="14" height="10" fill="#a8d4ff" opacity=".55"/>
  <rect x="1528" y="1256" width="14" height="10" fill="#f5d87a" opacity=".65"/>
  <rect x="1546" y="1256" width="14" height="10" fill="#fff"    opacity=".5"/>
  <rect x="1492" y="1272" width="14" height="10" fill="#a8d4ff" opacity=".5"/>
  <rect x="1528" y="1272" width="14" height="10" fill="#fff"    opacity=".6"/>
  <rect x="1492" y="1290" width="14" height="10" fill="#fff"    opacity=".55"/>
  <rect x="1510" y="1290" width="14" height="10" fill="#a8d4ff" opacity=".6"/>
  <rect x="1546" y="1290" width="14" height="10" fill="#f5d87a" opacity=".55"/>

  <rect x="1610" y="1300" width="14" height="10" fill="#a8d4ff" opacity=".6"/>
  <rect x="1628" y="1300" width="14" height="10" fill="#fff"    opacity=".65"/>
  <rect x="1648" y="1300" width="14" height="10" fill="#f5d87a" opacity=".55"/>
  <rect x="1668" y="1300" width="14" height="10" fill="#a8d4ff" opacity=".5"/>
  <rect x="1610" y="1318" width="14" height="10" fill="#fff"    opacity=".55"/>
  <rect x="1648" y="1318" width="14" height="10" fill="#a8d4ff" opacity=".6"/>
  <rect x="1668" y="1318" width="14" height="10" fill="#fff"    opacity=".5"/>
  <rect x="1610" y="1336" width="14" height="10" fill="#a8d4ff" opacity=".5"/>
  <rect x="1628" y="1336" width="14" height="10" fill="#f5d87a" opacity=".65"/>
  <rect x="1648" y="1336" width="14" height="10" fill="#fff"    opacity=".55"/>

  <rect x="1752" y="1200" width="16" height="10" fill="#fff"    opacity=".65"/>
  <rect x="1772" y="1200" width="16" height="10" fill="#a8d4ff" opacity=".55"/>
  <rect x="1792" y="1200" width="16" height="10" fill="#f5d87a" opacity=".6"/>
  <rect x="1812" y="1200" width="16" height="10" fill="#fff"    opacity=".5"/>
  <rect x="1752" y="1218" width="16" height="10" fill="#a8d4ff" opacity=".6"/>
  <rect x="1772" y="1218" width="16" height="10" fill="#fff"    opacity=".65"/>
  <rect x="1792" y="1218" width="16" height="10" fill="#a8d4ff" opacity=".5"/>
  <rect x="1812" y="1218" width="16" height="10" fill="#f5d87a" opacity=".55"/>
  <rect x="1752" y="1236" width="16" height="10" fill="#fff"    opacity=".55"/>
  <rect x="1792" y="1236" width="16" height="10" fill="#a8d4ff" opacity=".6"/>
  <rect x="1812" y="1236" width="16" height="10" fill="#fff"    opacity=".5"/>

  <rect x="1876" y="1120" width="18" height="12" fill="#fff"    opacity=".7"/>
  <rect x="1898" y="1120" width="18" height="12" fill="#a8d4ff" opacity=".6"/>
  <rect x="1920" y="1120" width="18" height="12" fill="#f5d87a" opacity=".65"/>
  <rect x="1876" y="1140" width="18" height="12" fill="#a8d4ff" opacity=".65"/>
  <rect x="1898" y="1140" width="18" height="12" fill="#fff"    opacity=".7"/>
  <rect x="1920" y="1140" width="18" height="12" fill="#a8d4ff" opacity=".55"/>
  <rect x="1876" y="1160" width="18" height="12" fill="#f5d87a" opacity=".6"/>
  <rect x="1898" y="1160" width="18" height="12" fill="#a8d4ff" opacity=".65"/>
  <rect x="1920" y="1160" width="18" height="12" fill="#fff"    opacity=".7"/>
  <rect x="1876" y="1182" width="18" height="12" fill="#fff"    opacity=".65"/>
  <rect x="1920" y="1182" width="18" height="12" fill="#a8d4ff" opacity=".6"/>

  <rect x="1972" y="1082" width="20" height="12" fill="#a8d4ff" opacity=".6"/>
  <rect x="1996" y="1082" width="20" height="12" fill="#fff"    opacity=".7"/>
  <rect x="2020" y="1082" width="20" height="12" fill="#a8d4ff" opacity=".55"/>
  <rect x="1972" y="1102" width="20" height="12" fill="#fff"    opacity=".65"/>
  <rect x="1996" y="1102" width="20" height="12" fill="#f5d87a" opacity=".6"/>
  <rect x="2020" y="1102" width="20" height="12" fill="#fff"    opacity=".7"/>
  <rect x="1972" y="1122" width="20" height="12" fill="#a8d4ff" opacity=".55"/>
  <rect x="1996" y="1122" width="20" height="12" fill="#fff"    opacity=".65"/>
  <rect x="2020" y="1122" width="20" height="12" fill="#a8d4ff" opacity=".6"/>
  <rect x="1972" y="1144" width="20" height="12" fill="#f5d87a" opacity=".6"/>
  <rect x="2020" y="1144" width="20" height="12" fill="#fff"    opacity=".7"/>

  <!-- Antenna blinking lights -->
  <circle cx="1960" cy="955"  r="8" fill="#ff3333" opacity=".9"/>
  <circle cx="1883" cy="930"  r="6" fill="#ff8800" opacity=".85"/>
  <circle cx="1742" cy="1075" r="5" fill="#ff3333" opacity=".7"/>

  <!-- Ground / road level -->
  <rect x="0" y="2060" width="3840" height="100" fill="#080e1e"/>
  <!-- Road reflection streaks -->
  <rect x="400"  y="2070" width="200" height="4" rx="2" fill="#1a2a50" opacity=".4"/>
  <rect x="800"  y="2070" width="200" height="4" rx="2" fill="#1a2a50" opacity=".4"/>
  <rect x="1400" y="2070" width="300" height="4" rx="2" fill="#1a2a50" opacity=".4"/>
  <rect x="2000" y="2070" width="300" height="4" rx="2" fill="#1a2a50" opacity=".4"/>
  <rect x="2600" y="2070" width="200" height="4" rx="2" fill="#1a2a50" opacity=".4"/>
  <rect x="3200" y="2070" width="200" height="4" rx="2" fill="#1a2a50" opacity=".4"/>
</svg>
